<?xml version="1.0" standalone="no"?>
<svg xmlns:xlink="http://www.w3.org/1999/xlink" id="wave" style="transform:rotate(0deg); transition: 0.3s" viewBox="0 0 1440 340" version="1.1" xmlns="http://www.w3.org/2000/svg"><defs><linearGradient id="sw-gradient-0" x1="0" x2="0" y1="1" y2="0"><stop stop-color="rgba(39, 48, 54, 1)" offset="0%"/><stop stop-color="rgba(143, 201, 170, 1)" offset="100%"/></linearGradient></defs><path style="transform:translate(0, 0px); opacity:1" fill="url(#sw-gradient-0)" d="M0,204L40,170C80,136,160,68,240,56.7C320,45,400,91,480,102C560,113,640,91,720,90.7C800,91,880,113,960,102C1040,91,1120,45,1200,34C1280,23,1360,45,1440,85C1520,125,1600,181,1680,170C1760,159,1840,79,1920,45.3C2000,11,2080,23,2160,45.3C2240,68,2320,102,2400,119C2480,136,2560,136,2640,158.7C2720,181,2800,227,2880,238C2960,249,3040,227,3120,221C3200,215,3280,227,3360,221C3440,215,3520,193,3600,175.7C3680,159,3760,147,3840,170C3920,193,4000,249,4080,238C4160,227,4240,147,4320,130.3C4400,113,4480,159,4560,192.7C4640,227,4720,249,4800,226.7C4880,204,4960,136,5040,113.3C5120,91,5200,113,5280,124.7C5360,136,5440,136,5520,119C5600,102,5680,68,5720,51L5760,34L5760,340L5720,340C5680,340,5600,340,5520,340C5440,340,5360,340,5280,340C5200,340,5120,340,5040,340C4960,340,4880,340,4800,340C4720,340,4640,340,4560,340C4480,340,4400,340,4320,340C4240,340,4160,340,4080,340C4000,340,3920,340,3840,340C3760,340,3680,340,3600,340C3520,340,3440,340,3360,340C3280,340,3200,340,3120,340C3040,340,2960,340,2880,340C2800,340,2720,340,2640,340C2560,340,2480,340,2400,340C2320,340,2240,340,2160,340C2080,340,2000,340,1920,340C1840,340,1760,340,1680,340C1600,340,1520,340,1440,340C1360,340,1280,340,1200,340C1120,340,1040,340,960,340C880,340,800,340,720,340C640,340,560,340,480,340C400,340,320,340,240,340C160,340,80,340,40,340L0,340Z"/></svg>