<?xml version="1.0" standalone="no"?>
<svg xmlns:xlink="http://www.w3.org/1999/xlink" id="wave" style="transform:rotate(180deg); transition: 0.3s" viewBox="0 0 1440 190" version="1.1" xmlns="http://www.w3.org/2000/svg"><defs><linearGradient id="sw-gradient-0" x1="0" x2="0" y1="1" y2="0"><stop stop-color="rgba(39, 48, 54, 1)" offset="0%"/><stop stop-color="rgba(143, 201, 170, 1)" offset="100%"/></linearGradient></defs><path style="transform:translate(0, 0px); opacity:1" fill="url(#sw-gradient-0)" d="M0,76L120,72.8C240,70,480,63,720,69.7C960,76,1200,95,1440,85.5C1680,76,1920,38,2160,22.2C2400,6,2640,13,2880,15.8C3120,19,3360,19,3600,28.5C3840,38,4080,57,4320,53.8C4560,51,4800,25,5040,25.3C5280,25,5520,51,5760,50.7C6000,51,6240,25,6480,31.7C6720,38,6960,76,7200,76C7440,76,7680,38,7920,28.5C8160,19,8400,38,8640,47.5C8880,57,9120,57,9360,50.7C9600,44,9840,32,10080,25.3C10320,19,10560,19,10800,44.3C11040,70,11280,120,11520,139.3C11760,158,12000,146,12240,145.7C12480,146,12720,158,12960,155.2C13200,152,13440,133,13680,123.5C13920,114,14160,114,14400,107.7C14640,101,14880,89,15120,88.7C15360,89,15600,101,15840,110.8C16080,120,16320,127,16560,133C16800,139,17040,146,17160,148.8L17280,152L17280,190L17160,190C17040,190,16800,190,16560,190C16320,190,16080,190,15840,190C15600,190,15360,190,15120,190C14880,190,14640,190,14400,190C14160,190,13920,190,13680,190C13440,190,13200,190,12960,190C12720,190,12480,190,12240,190C12000,190,11760,190,11520,190C11280,190,11040,190,10800,190C10560,190,10320,190,10080,190C9840,190,9600,190,9360,190C9120,190,8880,190,8640,190C8400,190,8160,190,7920,190C7680,190,7440,190,7200,190C6960,190,6720,190,6480,190C6240,190,6000,190,5760,190C5520,190,5280,190,5040,190C4800,190,4560,190,4320,190C4080,190,3840,190,3600,190C3360,190,3120,190,2880,190C2640,190,2400,190,2160,190C1920,190,1680,190,1440,190C1200,190,960,190,720,190C480,190,240,190,120,190L0,190Z"/></svg>